<?xml version="1.0" encoding="UTF-8" standalone="no"?>
<svg xmlns="http://www.w3.org/2000/svg" width="200" height="60" viewBox="0 0 200 60" fill="none">
  <path d="M56.5 30.5L53 38.5H50.5L47.5 32L44.5 38.5H42L38.5 30.5H41L43.5 37L46.5 30.5H49L51.5 37L54 30.5H56.5Z" fill="#232F3E"/>
  <path d="M57 38.5V30.5H59.5V32C60 31 61 30.5 62.5 30.5C64 30.5 65 31 65.5 32C66 31 67 30.5 68.5 30.5C69.5 30.5 70.5 30.8333 71 31.5C71.5 32.1667 71.75 33 71.75 34V38.5H69.25V34.5C69.25 34 69.1667 33.5833 69 33.25C68.8333 32.9167 68.5 32.75 68 32.75C67.5 32.75 67.1667 32.9167 67 33.25C66.8333 33.5833 66.75 34 66.75 34.5V38.5H64.25V34.5C64.25 34 64.1667 33.5833 64 33.25C63.8333 32.9167 63.5 32.75 63 32.75C62.5 32.75 62.1667 32.9167 62 33.25C61.8333 33.5833 61.75 34 61.75 34.5V38.5H57Z" fill="#232F3E"/>
  <path d="M77 38.75C76 38.75 75.1667 38.4167 74.5 37.75C73.8333 37.0833 73.5 36.1667 73.5 35V34C73.5 32.8333 73.8333 31.9167 74.5 31.25C75.1667 30.5833 76 30.25 77 30.25C78 30.25 78.8333 30.5833 79.5 31.25C80.1667 31.9167 80.5 32.8333 80.5 34V35C80.5 36.1667 80.1667 37.0833 79.5 37.75C78.8333 38.4167 78 38.75 77 38.75ZM77 36.75C77.5 36.75 77.8333 36.5833 78 36.25C78.1667 35.9167 78.25 35.5 78.25 35V34C78.25 33.5 78.1667 33.0833 78 32.75C77.8333 32.4167 77.5 32.25 77 32.25C76.5 32.25 76.1667 32.4167 76 32.75C75.8333 33.0833 75.75 33.5 75.75 34V35C75.75 35.5 75.8333 35.9167 76 36.25C76.1667 36.5833 76.5 36.75 77 36.75Z" fill="#232F3E"/>
  <path d="M85 38.5H82.5V30.5H85V38.5ZM85.25 29H82.25V27H85.25V29Z" fill="#232F3E"/>
  <path d="M91 38.75C90 38.75 89.1667 38.4167 88.5 37.75C87.8333 37.0833 87.5 36.1667 87.5 35V34C87.5 32.8333 87.8333 31.9167 88.5 31.25C89.1667 30.5833 90 30.25 91 30.25C92 30.25 92.8333 30.5833 93.5 31.25C94.1667 31.9167 94.5 32.8333 94.5 34V35C94.5 36.1667 94.1667 37.0833 93.5 37.75C92.8333 38.4167 92 38.75 91 38.75ZM91 36.75C91.5 36.75 91.8333 36.5833 92 36.25C92.1667 35.9167 92.25 35.5 92.25 35V34C92.25 33.5 92.1667 33.0833 92 32.75C91.8333 32.4167 91.5 32.25 91 32.25C90.5 32.25 90.1667 32.4167 90 32.75C89.8333 33.0833 89.75 33.5 89.75 34V35C89.75 35.5 89.8333 35.9167 90 36.25C90.1667 36.5833 90.5 36.75 91 36.75Z" fill="#232F3E"/>
  <path d="M95.5 38.5V30.5H98V31.5C98.5 30.6667 99.3333 30.25 100.5 30.25C101.5 30.25 102.25 30.5 102.75 31C103.25 31.5 103.5 32.25 103.5 33.25V38.5H101V33.5C101 33 100.833 32.5833 100.5 32.25C100.167 31.9167 99.6667 31.75 99 31.75C98.3333 31.75 97.8333 31.9167 97.5 32.25C97.1667 32.5833 97 33 97 33.5V38.5H95.5Z" fill="#232F3E"/>
  <path d="M109 38.75C108 38.75 107.167 38.4167 106.5 37.75C105.833 37.0833 105.5 36.1667 105.5 35V34C105.5 32.8333 105.833 31.9167 106.5 31.25C107.167 30.5833 108 30.25 109 30.25C110 30.25 110.833 30.5833 111.5 31.25C112.167 31.9167 112.5 32.8333 112.5 34V35C112.5 36.1667 112.167 37.0833 111.5 37.75C110.833 38.4167 110 38.75 109 38.75ZM109 36.75C109.5 36.75 109.833 36.5833 110 36.25C110.167 35.9167 110.25 35.5 110.25 35V34C110.25 33.5 110.167 33.0833 110 32.75C109.833 32.4167 109.5 32.25 109 32.25C108.5 32.25 108.167 32.4167 108 32.75C107.833 33.0833 107.75 33.5 107.75 34V35C107.75 35.5 107.833 35.9167 108 36.25C108.167 36.5833 108.5 36.75 109 36.75Z" fill="#232F3E"/>
  <path d="M118 38.5H115.5V30.5H118V31.5C118.5 30.6667 119.333 30.25 120.5 30.25C121.5 30.25 122.25 30.5 122.75 31C123.25 31.5 123.5 32.25 123.5 33.25V38.5H121V33.5C121 33 120.833 32.5833 120.5 32.25C120.167 31.9167 119.667 31.75 119 31.75C118.333 31.75 117.833 31.9167 117.5 32.25C117.167 32.5833 117 33 117 33.5V38.5H118Z" fill="#232F3E"/>
  <path d="M129 38.75C128 38.75 127.167 38.4167 126.5 37.75C125.833 37.0833 125.5 36.1667 125.5 35V34C125.5 32.8333 125.833 31.9167 126.5 31.25C127.167 30.5833 128 30.25 129 30.25C130 30.25 130.833 30.5833 131.5 31.25C132.167 31.9167 132.5 32.8333 132.5 34V35C132.5 36.1667 132.167 37.0833 131.5 37.75C130.833 38.4167 130 38.75 129 38.75ZM129 36.75C129.5 36.75 129.833 36.5833 130 36.25C130.167 35.9167 130.25 35.5 130.25 35V34C130.25 33.5 130.167 33.0833 130 32.75C129.833 32.4167 129.5 32.25 129 32.25C128.5 32.25 128.167 32.4167 128 32.75C127.833 33.0833 127.75 33.5 127.75 34V35C127.75 35.5 127.833 35.9167 128 36.25C128.167 36.5833 128.5 36.75 129 36.75Z" fill="#232F3E"/>
  <path d="M138 38.5H135.5V30.5H138V31.5C138.5 30.6667 139.333 30.25 140.5 30.25C141.5 30.25 142.25 30.5 142.75 31C143.25 31.5 143.5 32.25 143.5 33.25V38.5H141V33.5C141 33 140.833 32.5833 140.5 32.25C140.167 31.9167 139.667 31.75 139 31.75C138.333 31.75 137.833 31.9167 137.5 32.25C137.167 32.5833 137 33 137 33.5V38.5H138Z" fill="#232F3E"/>
  <path d="M149 38.75C148 38.75 147.167 38.4167 146.5 37.75C145.833 37.0833 145.5 36.1667 145.5 35V34C145.5 32.8333 145.833 31.9167 146.5 31.25C147.167 30.5833 148 30.25 149 30.25C150 30.25 150.833 30.5833 151.5 31.25C152.167 31.9167 152.5 32.8333 152.5 34V35C152.5 36.1667 152.167 37.0833 151.5 37.75C150.833 38.4167 150 38.75 149 38.75ZM149 36.75C149.5 36.75 149.833 36.5833 150 36.25C150.167 35.9167 150.25 35.5 150.25 35V34C150.25 33.5 150.167 33.0833 150 32.75C149.833 32.4167 149.5 32.25 149 32.25C148.5 32.25 148.167 32.4167 148 32.75C147.833 33.0833 147.75 33.5 147.75 34V35C147.75 35.5 147.833 35.9167 148 36.25C148.167 36.5833 148.5 36.75 149 36.75Z" fill="#232F3E"/>
  <path d="M158 38.5H155.5V30.5H158V31.5C158.5 30.6667 159.333 30.25 160.5 30.25C161.5 30.25 162.25 30.5 162.75 31C163.25 31.5 163.5 32.25 163.5 33.25V38.5H161V33.5C161 33 160.833 32.5833 160.5 32.25C160.167 31.9167 159.667 31.75 159 31.75C158.333 31.75 157.833 31.9167 157.5 32.25C157.167 32.5833 157 33 157 33.5V38.5H158Z" fill="#232F3E"/>
  <path d="M169 38.75C168 38.75 167.167 38.4167 166.5 37.75C165.833 37.0833 165.5 36.1667 165.5 35V34C165.5 32.8333 165.833 31.9167 166.5 31.25C167.167 30.5833 168 30.25 169 30.25C170 30.25 170.833 30.5833 171.5 31.25C172.167 31.9167 172.5 32.8333 172.5 34V35C172.5 36.1667 172.167 37.0833 171.5 37.75C170.833 38.4167 170 38.75 169 38.75ZM169 36.75C169.5 36.75 169.833 36.5833 170 36.25C170.167 35.9167 170.25 35.5 170.25 35V34C170.25 33.5 170.167 33.0833 170 32.75C169.833 32.4167 169.5 32.25 169 32.25C168.5 32.25 168.167 32.4167 168 32.75C167.833 33.0833 167.75 33.5 167.75 34V35C167.75 35.5 167.833 35.9167 168 36.25C168.167 36.5833 168.5 36.75 169 36.75Z" fill="#232F3E"/>
  <path d="M178 38.5H175.5V30.5H178V31.5C178.5 30.6667 179.333 30.25 180.5 30.25C181.5 30.25 182.25 30.5 182.75 31C183.25 31.5 183.5 32.25 183.5 33.25V38.5H181V33.5C181 33 180.833 32.5833 180.5 32.25C180.167 31.9167 179.667 31.75 179 31.75C178.333 31.75 177.833 31.9167 177.5 32.25C177.167 32.5833 177 33 177 33.5V38.5H178Z" fill="#232F3E"/>
  <path d="M189 38.75C188 38.75 187.167 38.4167 186.5 37.75C185.833 37.0833 185.5 36.1667 185.5 35V34C185.5 32.8333 185.833 31.9167 186.5 31.25C187.167 30.5833 188 30.25 189 30.25C190 30.25 190.833 30.5833 191.5 31.25C192.167 31.9167 192.5 32.8333 192.5 34V35C192.5 36.1667 192.167 37.0833 191.5 37.75C190.833 38.4167 190 38.75 189 38.75ZM189 36.75C189.5 36.75 189.833 36.5833 190 36.25C190.167 35.9167 190.25 35.5 190.25 35V34C190.25 33.5 190.167 33.0833 190 32.75C189.833 32.4167 189.5 32.25 189 32.25C188.5 32.25 188.167 32.4167 188 32.75C187.833 33.0833 187.75 33.5 187.75 34V35C187.75 35.5 187.833 35.9167 188 36.25C188.167 36.5833 188.5 36.75 189 36.75Z" fill="#232F3E"/>
  <path d="M30 20L40 25V35L30 40L20 35V25L30 20Z" fill="#FF9900"/>
  <path d="M30 20V30L20 35V25L30 20Z" fill="#232F3E"/>
  <path d="M30 20L40 25L30 30L20 25L30 20Z" fill="#232F3E"/>
  <path d="M30 30V40L20 35L30 30Z" fill="#232F3E"/>
  <path d="M30 30L40 25V35L30 40V30Z" fill="#232F3E"/>
</svg>