<?xml version="1.0" encoding="UTF-8" standalone="no"?>
<svg xmlns="http://www.w3.org/2000/svg" width="200" height="60" viewBox="0 0 200 60" fill="none">
  <path d="M20.5 30C20.5 25.3056 24.3056 21.5 29 21.5H39.5V30C39.5 34.6944 35.6944 38.5 31 38.5H20.5V30Z" fill="#EA4335"/>
  <path d="M39.5 21.5H49C53.6944 21.5 57.5 25.3056 57.5 30V38.5H47C42.3056 38.5 38.5 34.6944 38.5 30V21.5H39.5Z" fill="#4285F4"/>
  <path d="M57.5 38.5V47C57.5 51.6944 53.6944 55.5 49 55.5H39.5V47C39.5 42.3056 43.3056 38.5 48 38.5H57.5Z" fill="#34A853"/>
  <path d="M20.5 47V38.5H31C35.6944 38.5 39.5 42.3056 39.5 47V55.5H29C24.3056 55.5 20.5 51.6944 20.5 47Z" fill="#FBBC05"/>
  <path d="M70 30.5H73.5V32H70V38.5H68.5V32H67V30.5H68.5V29.5C68.5 28.3333 68.8333 27.5 69.5 27C70.1667 26.5 71.1667 26.25 72.5 26.25V27.75C71.6667 27.75 71.0833 27.9167 70.75 28.25C70.4167 28.5833 70.25 29.0833 70.25 29.75V30.5H70Z" fill="#5F6368"/>
  <path d="M78.5 38.75C77.3333 38.75 76.4167 38.4167 75.75 37.75C75.0833 37.0833 74.75 36.1667 74.75 35V34C74.75 32.8333 75.0833 31.9167 75.75 31.25C76.4167 30.5833 77.3333 30.25 78.5 30.25C79.6667 30.25 80.5833 30.5833 81.25 31.25C81.9167 31.9167 82.25 32.8333 82.25 34V35C82.25 36.1667 81.9167 37.0833 81.25 37.75C80.5833 38.4167 79.6667 38.75 78.5 38.75ZM78.5 37.25C79.1667 37.25 79.6667 37.0833 80 36.75C80.3333 36.4167 80.5 35.8333 80.5 35V34C80.5 33.1667 80.3333 32.5833 80 32.25C79.6667 31.9167 79.1667 31.75 78.5 31.75C77.8333 31.75 77.3333 31.9167 77 32.25C76.6667 32.5833 76.5 33.1667 76.5 34V35C76.5 35.8333 76.6667 36.4167 77 36.75C77.3333 37.0833 77.8333 37.25 78.5 37.25Z" fill="#5F6368"/>
  <path d="M87.5 38.75C86.3333 38.75 85.4167 38.4167 84.75 37.75C84.0833 37.0833 83.75 36.1667 83.75 35V34C83.75 32.8333 84.0833 31.9167 84.75 31.25C85.4167 30.5833 86.3333 30.25 87.5 30.25C88.6667 30.25 89.5833 30.5833 90.25 31.25C90.9167 31.9167 91.25 32.8333 91.25 34V35C91.25 36.1667 90.9167 37.0833 90.25 37.75C89.5833 38.4167 88.6667 38.75 87.5 38.75ZM87.5 37.25C88.1667 37.25 88.6667 37.0833 89 36.75C89.3333 36.4167 89.5 35.8333 89.5 35V34C89.5 33.1667 89.3333 32.5833 89 32.25C88.6667 31.9167 88.1667 31.75 87.5 31.75C86.8333 31.75 86.3333 31.9167 86 32.25C85.6667 32.5833 85.5 33.1667 85.5 34V35C85.5 35.8333 85.6667 36.4167 86 36.75C86.3333 37.0833 86.8333 37.25 87.5 37.25Z" fill="#5F6368"/>
  <path d="M96.5 38.75C95.6667 38.75 94.9167 38.5833 94.25 38.25C93.5833 37.9167 93.0833 37.4167 92.75 36.75L94 35.75C94.5 36.75 95.3333 37.25 96.5 37.25C97 37.25 97.4167 37.1667 97.75 37C98.0833 36.8333 98.25 36.5833 98.25 36.25C98.25 35.9167 98.1667 35.6667 98 35.5C97.8333 35.3333 97.5 35.1667 97 35L95.5 34.5C94.8333 34.3333 94.3333 34 94 33.5C93.6667 33 93.5 32.4167 93.5 31.75C93.5 30.9167 93.8333 30.25 94.5 29.75C95.1667 29.25 96 29 97 29C97.8333 29 98.5 29.1667 99 29.5C99.5 29.8333 100 30.3333 100.5 31L99.25 32C98.75 31.3333 98 31 97 31C96.5 31 96.1667 31.0833 95.9167 31.25C95.6667 31.4167 95.5417 31.6667 95.5 32C95.5 32.3333 95.5833 32.5833 95.75 32.75C95.9167 32.9167 96.1667 33.0833 96.5 33.25L98 33.75C98.8333 34 99.4167 34.3333 99.75 34.75C100.083 35.1667 100.25 35.75 100.25 36.5C100.25 37.3333 99.9167 38 99.25 38.5C98.5833 39 97.6667 39.25 96.5 38.75Z" fill="#5F6368"/>
  <path d="M104.5 38.5H102.75V30.5H104.5V38.5ZM104.75 28.5H102.5V26.5H104.75V28.5Z" fill="#5F6368"/>
  <path d="M110.5 38.75C109.333 38.75 108.417 38.4167 107.75 37.75C107.083 37.0833 106.75 36.1667 106.75 35V34C106.75 32.8333 107.083 31.9167 107.75 31.25C108.417 30.5833 109.333 30.25 110.5 30.25C111.667 30.25 112.583 30.5833 113.25 31.25C113.917 31.9167 114.25 32.8333 114.25 34V35C114.25 36.1667 113.917 37.0833 113.25 37.75C112.583 38.4167 111.667 38.75 110.5 38.75ZM110.5 37.25C111.167 37.25 111.667 37.0833 112 36.75C112.333 36.4167 112.5 35.8333 112.5 35V34C112.5 33.1667 112.333 32.5833 112 32.25C111.667 31.9167 111.167 31.75 110.5 31.75C109.833 31.75 109.333 31.9167 109 32.25C108.667 32.5833 108.5 33.1667 108.5 34V35C108.5 35.8333 108.667 36.4167 109 36.75C109.333 37.0833 109.833 37.25 110.5 37.25Z" fill="#5F6368"/>
  <path d="M119.5 38.5H117.75V30.5H119.5V31.5C120 30.6667 120.833 30.25 122 30.25C123 30.25 123.75 30.5 124.25 31C124.75 31.5 125 32.25 125 33.25V38.5H123.25V33.5C123.25 33 123.083 32.5833 122.75 32.25C122.417 31.9167 121.917 31.75 121.25 31.75C120.583 31.75 120.083 31.9167 119.75 32.25C119.417 32.5833 119.25 33 119.25 33.5V38.5H119.5Z" fill="#5F6368"/>
  <path d="M131.5 38.75C130.333 38.75 129.417 38.4167 128.75 37.75C128.083 37.0833 127.75 36.1667 127.75 35V34C127.75 32.8333 128.083 31.9167 128.75 31.25C129.417 30.5833 130.333 30.25 131.5 30.25C132.667 30.25 133.583 30.5833 134.25 31.25C134.917 31.9167 135.25 32.8333 135.25 34V35C135.25 36.1667 134.917 37.0833 134.25 37.75C133.583 38.4167 132.667 38.75 131.5 38.75ZM131.5 37.25C132.167 37.25 132.667 37.0833 133 36.75C133.333 36.4167 133.5 35.8333 133.5 35V34C133.5 33.1667 133.333 32.5833 133 32.25C132.667 31.9167 132.167 31.75 131.5 31.75C130.833 31.75 130.333 31.9167 130 32.25C129.667 32.5833 129.5 33.1667 129.5 34V35C129.5 35.8333 129.667 36.4167 130 36.75C130.333 37.0833 130.833 37.25 131.5 37.25Z" fill="#5F6368"/>
  <path d="M140.5 38.5H138.75V30.5H140.5V31.5C141 30.6667 141.833 30.25 143 30.25C144 30.25 144.75 30.5 145.25 31C145.75 31.5 146 32.25 146 33.25V38.5H144.25V33.5C144.25 33 144.083 32.5833 143.75 32.25C143.417 31.9167 142.917 31.75 142.25 31.75C141.583 31.75 141.083 31.9167 140.75 32.25C140.417 32.5833 140.25 33 140.25 33.5V38.5H140.5Z" fill="#5F6368"/>
  <path d="M152.5 38.75C151.333 38.75 150.417 38.4167 149.75 37.75C149.083 37.0833 148.75 36.1667 148.75 35V34C148.75 32.8333 149.083 31.9167 149.75 31.25C150.417 30.5833 151.333 30.25 152.5 30.25C153.667 30.25 154.583 30.5833 155.25 31.25C155.917 31.9167 156.25 32.8333 156.25 34V35C156.25 36.1667 155.917 37.0833 155.25 37.75C154.583 38.4167 153.667 38.75 152.5 38.75ZM152.5 37.25C153.167 37.25 153.667 37.0833 154 36.75C154.333 36.4167 154.5 35.8333 154.5 35V34C154.5 33.1667 154.333 32.5833 154 32.25C153.667 31.9167 153.167 31.75 152.5 31.75C151.833 31.75 151.333 31.9167 151 32.25C150.667 32.5833 150.5 33.1667 150.5 34V35C150.5 35.8333 150.667 36.4167 151 36.75C151.333 37.0833 151.833 37.25 152.5 37.25Z" fill="#5F6368"/>
  <path d="M161.5 38.5H159.75V30.5H161.5V31.5C162 30.6667 162.833 30.25 164 30.25C165 30.25 165.75 30.5 166.25 31C166.75 31.5 167 32.25 167 33.25V38.5H165.25V33.5C165.25 33 165.083 32.5833 164.75 32.25C164.417 31.9167 163.917 31.75 163.25 31.75C162.583 31.75 162.083 31.9167 161.75 32.25C161.417 32.5833 161.25 33 161.25 33.5V38.5H161.5Z" fill="#5F6368"/>
  <path d="M173.5 38.75C172.333 38.75 171.417 38.4167 170.75 37.75C170.083 37.0833 169.75 36.1667 169.75 35V34C169.75 32.8333 170.083 31.9167 170.75 31.25C171.417 30.5833 172.333 30.25 173.5 30.25C174.667 30.25 175.583 30.5833 176.25 31.25C176.917 31.9167 177.25 32.8333 177.25 34V35C177.25 36.1667 176.917 37.0833 176.25 37.75C175.583 38.4167 174.667 38.75 173.5 38.75ZM173.5 37.25C174.167 37.25 174.667 37.0833 175 36.75C175.333 36.4167 175.5 35.8333 175.5 35V34C175.5 33.1667 175.333 32.5833 175 32.25C174.667 31.9167 174.167 31.75 173.5 31.75C172.833 31.75 172.333 31.9167 172 32.25C171.667 32.5833 171.5 33.1667 171.5 34V35C171.5 35.8333 171.667 36.4167 172 36.75C172.333 37.0833 172.833 37.25 173.5 37.25Z" fill="#5F6368"/>
  <path d="M182.5 38.5H180.75V30.5H182.5V31.5C183 30.6667 183.833 30.25 185 30.25C186 30.25 186.75 30.5 187.25 31C187.75 31.5 188 32.25 188 33.25V38.5H186.25V33.5C186.25 33 186.083 32.5833 185.75 32.25C185.417 31.9167 184.917 31.75 184.25 31.75C183.583 31.75 183.083 31.9167 182.75 32.25C182.417 32.5833 182.25 33 182.25 33.5V38.5H182.5Z" fill="#5F6368"/>
  <path d="M194.5 38.75C193.333 38.75 192.417 38.4167 191.75 37.75C191.083 37.0833 190.75 36.1667 190.75 35V34C190.75 32.8333 191.083 31.9167 191.75 31.25C192.417 30.5833 193.333 30.25 194.5 30.25C195.667 30.25 196.583 30.5833 197.25 31.25C197.917 31.9167 198.25 32.8333 198.25 34V35C198.25 36.1667 197.917 37.0833 197.25 37.75C196.583 38.4167 195.667 38.75 194.5 38.75ZM194.5 37.25C195.167 37.25 195.667 37.0833 196 36.75C196.333 36.4167 196.5 35.8333 196.5 35V34C196.5 33.1667 196.333 32.5833 196 32.25C195.667 31.9167 195.167 31.75 194.5 31.75C193.833 31.75 193.333 31.9167 193 32.25C192.667 32.5833 192.5 33.1667 192.5 34V35C192.5 35.8333 192.667 36.4167 193 36.75C193.333 37.0833 193.833 37.25 194.5 37.25Z" fill="#5F6368"/>
</svg>