<?xml version="1.0" encoding="UTF-8"?>
<svg width="48px" height="48px" viewBox="0 0 48 48" version="1.1" xmlns="http://www.w3.org/2000/svg">
    <g stroke="none" stroke-width="1" fill="none" fill-rule="evenodd">
        <g fill="#4f46e5">
            <path d="M24,4 C12.954,4 4,12.954 4,24 C4,35.046 12.954,44 24,44 C35.046,44 44,35.046 44,24 C44,12.954 35.046,4 24,4 Z M24,8 C32.837,8 40,15.163 40,24 C40,32.837 32.837,40 24,40 C15.163,40 8,32.837 8,24 C8,15.163 15.163,8 24,8 Z" fill-rule="nonzero"></path>
            <path d="M24,14 L32,22 L28,22 L28,32 L20,32 L20,22 L16,22 L24,14 Z" fill-rule="nonzero"></path>
        </g>
    </g>
</svg>