<?xml version="1.0" encoding="UTF-8"?>
<svg width="48px" height="48px" viewBox="0 0 48 48" version="1.1" xmlns="http://www.w3.org/2000/svg">
    <g stroke="none" stroke-width="1" fill="none" fill-rule="evenodd">
        <g fill="#4f46e5">
            <path d="M24,4 C12.954,4 4,12.954 4,24 C4,35.046 12.954,44 24,44 C35.046,44 44,35.046 44,24 C44,12.954 35.046,4 24,4 Z M24,8 C32.837,8 40,15.163 40,24 C40,32.837 32.837,40 24,40 C15.163,40 8,32.837 8,24 C8,15.163 15.163,8 24,8 Z" fill-rule="nonzero"></path>
            <path d="M24,12 C17.373,12 12,17.373 12,24 C12,30.627 17.373,36 24,36 C30.627,36 36,30.627 36,24 C36,17.373 30.627,12 24,12 Z M24,16 C28.418,16 32,19.582 32,24 C32,28.418 28.418,32 24,32 C19.582,32 16,28.418 16,24 C16,19.582 19.582,16 24,16 Z" fill-rule="nonzero"></path>
            <path d="M24,20 C21.791,20 20,21.791 20,24 C20,26.209 21.791,28 24,28 C26.209,28 28,26.209 28,24 C28,21.791 26.209,20 24,20 Z" fill-rule="nonzero"></path>
            <path d="M24,12 L24,16 M36,24 L32,24 M24,36 L24,32 M12,24 L16,24" stroke="#4f46e5" stroke-width="2" stroke-linecap="round"></path>
        </g>
    </g>
</svg>