<?xml version="1.0" encoding="UTF-8"?>
<svg width="48px" height="48px" viewBox="0 0 48 48" version="1.1" xmlns="http://www.w3.org/2000/svg">
    <g stroke="none" stroke-width="1" fill="none" fill-rule="evenodd">
        <g fill="#4f46e5">
            <path d="M24,4 C12.954,4 4,12.954 4,24 C4,35.046 12.954,44 24,44 C35.046,44 44,35.046 44,24 C44,12.954 35.046,4 24,4 Z M24,8 C32.837,8 40,15.163 40,24 C40,32.837 32.837,40 24,40 C15.163,40 8,32.837 8,24 C8,15.163 15.163,8 24,8 Z" fill-rule="nonzero"></path>
            <path d="M16,18 C13.791,18 12,19.791 12,22 C12,24.209 13.791,26 16,26 C18.209,26 20,24.209 20,22 C20,19.791 18.209,18 16,18 Z M32,22 C29.791,22 28,23.791 28,26 C28,28.209 29.791,30 32,30 C34.209,30 36,28.209 36,26 C36,23.791 34.209,22 32,22 Z M16,22 C16.552,22 17,22.448 17,23 L17,27 C17,27.552 16.552,28 16,28 C15.448,28 15,27.552 15,27 L15,23 C15,22.448 15.448,22 16,22 Z M32,26 C32.552,26 33,26.448 33,27 L33,31 C33,31.552 32.552,32 32,32 C31.448,32 31,31.552 31,31 L31,27 C31,26.448 31.448,26 32,26 Z M24,14 C21.791,14 20,15.791 20,18 C20,20.209 21.791,22 24,22 C26.209,22 28,20.209 28,18 C28,15.791 26.209,14 24,14 Z M24,18 C24.552,18 25,18.448 25,19 L25,23 C25,23.552 24.552,24 24,24 C23.448,24 23,23.552 23,23 L23,19 C23,18.448 23.448,18 24,18 Z" fill-rule="nonzero"></path>
            <path d="M17,23 L23,19 M25,19 L31,27" stroke="#4f46e5" stroke-width="2" stroke-linecap="round"></path>
        </g>
    </g>
</svg>