<?xml version="1.0" encoding="UTF-8"?>
<svg width="48px" height="48px" viewBox="0 0 48 48" version="1.1" xmlns="http://www.w3.org/2000/svg">
    <g stroke="none" stroke-width="1" fill="none" fill-rule="evenodd">
        <g fill="#4f46e5">
            <path d="M24,4 C12.954,4 4,12.954 4,24 C4,35.046 12.954,44 24,44 C35.046,44 44,35.046 44,24 C44,12.954 35.046,4 24,4 Z M24,8 C32.837,8 40,15.163 40,24 C40,32.837 32.837,40 24,40 C15.163,40 8,32.837 8,24 C8,15.163 15.163,8 24,8 Z" fill-rule="nonzero"></path>
            <path d="M30,14 C28.895,14 28,14.895 28,16 L28,32 C28,33.105 28.895,34 30,34 L32,34 C33.105,34 34,33.105 34,32 L34,16 C34,14.895 33.105,14 32,14 L30,14 Z M23,18 C21.895,18 21,18.895 21,20 L21,32 C21,33.105 21.895,34 23,34 L25,34 C26.105,34 27,33.105 27,32 L27,20 C27,18.895 26.105,18 25,18 L23,18 Z M16,22 C14.895,22 14,22.895 14,24 L14,32 C14,33.105 14.895,34 16,34 L18,34 C19.105,34 20,33.105 20,32 L20,24 C20,22.895 19.105,22 18,22 L16,22 Z" fill-rule="nonzero"></path>
        </g>
    </g>
</svg>